<?xml version="1.0" encoding="UTF-8"?>
<svg enable-background="new 0 0 512 512" version="1.1" viewBox="0 0 512 512" xml:space="preserve" xmlns="http://www.w3.org/2000/svg">





<path d="m426.04 61.625c-8.2297 0.95633-14.553 6.1994-18.15 14.314-2.8729 6.4813-2.916 13.428-4.4336 20.109-2.5884 11.396-6.6902 22.241-12.633 32.512-11.104 19.191-25.726 34.968-43.678 47.756-11.166 7.9539-23.283 14.247-35.629 20.193-11.452 5.5156-23.29 10.116-34.795 15.484-1.8203 0.84941-3.3498 0.97115-4.4863-1.2832-2.5402-5.0384-6.759-6.6504-12.074-5.0977-3.1178 0.91084-4.3644-0.68851-4.9277-3.2285-0.48779-2.1994-1.9235-4.4336 2.0586-5.6621 6.9063-2.1307 6.4592-7.4363 4.7012-12.535-6.1357-14.621-28.492 3.2661-37.701 4.9434-4.2064 1.603-5.167 5.038-5.0469 8.752 0.12135 3.7528 1.3139 7.274 6.0742 8.3301 0.7799 0.30502 5.5952-0.25476 6.7148-0.39062 2.3377-0.80465 4.9602-2.9741 6.3476 1.1055 1.0227 3.007 4.1118 6.4638-1.9297 8.1348-1.8811 0.5203-3.2013 2.7276-3.6699 5.418-0.15307 2.1034-0.68018 3.8706 0.25196 5.8848 2.1759 4.3331-1.0263 5.3549-3.5547 6.252-2.3297 0.82657-4.7407 1.8729-5.9824-2.332-1.5205-5.149-5.2956-7.1985-10.848-5.9024-4.975 1.1615-5.4121-2.1685-6.7246-5.0488-1.7217-3.7783 1.7639-4.1725 3.668-4.9883 3.5376-1.5156 5.3655-4.1241 5.1738-7.6484-0.20855-3.8348-1.3613-7.5453-6.248-8.9375-2.0782-0.11922-3.8294-0.69381-5.8203 0.30859-8.7 3.3312-17.034 6.5784-25.361 9.8457-5.5005 2.1583-7.4328 6.0328-5.6504 11.26 1.7627 5.1691 5.6704 6.8136 11.562 5.1445 7.9161-2.9696 10.622 6.8467 5.1094 9.9316-5.5472 3.1041-7.1099 7.427-4.291 12.854 1.5477 2.9795 0.68168 3.9963-1.7988 5.1504-3.3192 1.5443-5.8544 1.9766-7.8301-2.2324-2.4609-5.2427-6.521-7.3436-10.684-5.3203-5.348 2.5994-5.1818-1.907-6.543-4.373-1.8641-3.3771-0.59782-5.1293 3.0664-6.3105 5.5393-1.7857 7.0469-4.6805 5.875-9.5332-1.7286-7.1579-5.6872-9.5602-12.807-6.9277-8.5358 3.1563-16.896 6.7993-25.25 10.424-4.5951 1.9936-4.1416 6.3021-4.0801 10.303 0.053 3.4428 2.0471 5.2446 5.0469 6.582 3.147 1.4032 5.8382-0.0477 8.6328-0.80273 3.5705-0.96469 3.8236 1.6657 4.3242 3.8457 0.45157 1.9666 2.7644 4.1824-0.69335 5.875-6.7042 3.2818-8.6252 6.661-6.127 13.787 1.7028 4.8573-0.33717 6.0842-4.0215 7.3027-8.3196 2.7517-15.889 6.9162-22.871 12.219-7.6941 5.8434-14.261 12.683-19.354 20.922-0.93619 1.5147-1.7826 3.2064-3.5664 3.959-8.8402 3.7299-17.29 8.3526-26.381 11.51-1.8804 0.65308-3.2494 0.19598-4.9883-0.98047-10.544-7.133-22.104-10.325-34.314-5.4258-14.68 5.8906-19.441 11.631-15.33 25.064 3.9981 13.064 9.9318 25.554 15.342 38.156 2.32 5.4044 7.3454 8.0135 12.922 7.6211 13.196-0.92858 27.18-8.6423 31.943-22.975 1.2689-3.8176 3.2924-6.0743 7.1426-7.4141 3.0876-1.0744 3.9944-0.86523 4.3848 2.584 0.70266 6.2093 1.1846 12.628 3.1875 18.471 6.5666 19.154 17.787 35.008 35.154 46.039 22.38 14.215 46.487 15.826 71.312 8.7598 14.171-4.0334 27.408-10.809 41.035-16.422 20.998-8.648 41.957-17.391 62.9-26.17 22.438-9.4056 44.823-18.939 67.262-28.342 14.591-6.1145 28.909-12.587 39.738-24.764 10.39-11.682 16.392-25.165 17.498-41.135 0.12604-0.53207 0.0708-0.76025-0.0527-1.3359-0.11264-3.1688-0.33264-5.9952 0.16797-9.1523-0.0438-0.54156-0.1706-0.7384-0.32422-1.3203-0.0441-1.1526-0.0628-1.9218-0.2793-2.9512-0.72172-1.02-0.69997-1.9133-0.79687-3.1758-4.2578-21.496-16.144-36.87-35.961-47.092 10.595-3.8807 50.411-9.9261 90.545 12.582 6.0927 3.7491 12.433 7.1722 19.641 7.8164 41.016 0.60894 17.821-76.898 14.594-83.699-6.6829-20.609-15.383-40.39-26.152-59.258-9.1094-15.959-18.938-31.332-33.752-42.648-4.4545-3.4028-10.674-5.2853-15.785-4.6914zm-81.594 206.67c14.395 0.7344 21.084 5.7267 25.594 17.58 3.6874 9.6924-2.9298 22.043-9.1973 26.246-8.7568 5.873-18.839 8.6222-28.295 12.818-15.117 6.7081-30.39 13.063-45.619 19.518-14.463 6.1297-28.981 12.132-43.426 18.305-16.398 7.0076-32.96 13.616-49.27 20.854-30.021 14.697-50.697 16.703-70.697-15.783-0.59604-1.1764-1.1193-2.438-1.3906-3.7207-0.73765-3.4874-0.88579-5.9461 3.8086-7.6445 11.197-4.051 22.032-9.1122 32.961-13.887 3.8208-1.6692 6.3148-1.781 7.6289 3.1758 1.1329 4.2733 3.6626 8.1603 4.9844 12.402 2.1333 6.8463 8.1917 8.3667 15.611 6.0215 7.0838-2.2391 13.853-5.5118 20.682-8.5098 4.7273-2.0755 6.4623-6.2435 4.6152-11.6-1.8274-5.299-4.083-10.454-6.2734-15.621-0.98896-2.3328-1.9862-4.88 1.4609-5.4238 2.5086-0.39576 5.9198-5.8628 7.9277 0.98437 1.2955 4.4178 3.962 8.4408 5.2051 12.867 2.9619 10.547 10.707 10.137 17.5 7.5449 5.8755-2.2417 11.627-4.8101 17.434-7.2324 6.7275-2.8066 8.6465-7.2048 5.9883-13.893-2.0683-5.2036-4.0627-10.446-6.3789-15.539-1.0336-2.2728-1.1806-4.0444 1.5039-4.4043 2.3539-0.31558 5.2494-4.5142 7.248 0.63282 2.153 5.5446 4.3192 11.091 6.7344 16.523 2.5823 5.8088 7.1511 7.747 12.914 5.5586 7.1025-2.6971 14.285-5.2643 21.15-8.4883 8.1834-3.8431 9.2542-7.4382 5.6738-15.766-2.1486-4.9975-4.3672-9.9648-6.582-14.934-0.70398-1.5793-1.5608-3.0578 0.85742-4.0254 11.527-4.6118 22.591-10.383 34.977-13.893 1.6504-0.80231 3.0496-0.28183 4.6699-0.66797z" fill="#523d27"/><g>










<path d="m419.07 83.961c2.3476-7.4179 7.9945-9.6049 14.685-5.6039 5.355 3.2024 9.4878 7.8342 13.063 12.862 23.214 32.652 40.292 68.074 48.221 107.59 0.35647 1.7764 0.66 3.5634 0.93725 5.7569-2.8138 2.369-5.7604 1.643-8.6889 0.97829-18.709-4.2467-37.596-6.4431-56.839-6.3119-16.333 0.11128-32.001 3.2936-47.531 7.8527-14.066 4.1292-27.467 10.029-41.178 15.107-12.588 4.6616-25.144 9.3931-37.658 14.248-5.9918 2.3247-11.521 5.8994-18.437 6.7011-2.1393-4.4177-3.6536-8.8286-5.7008-12.976-1.6983-3.441-0.70234-4.8105 2.6391-6.1685 15.503-6.3002 30.946-12.775 45.944-20.207 37.857-18.758 66.218-46.76 82.921-85.961 6.5018-15.259 3.295-19.368 7.6221-33.862z" fill="#fac754"/>

<path d="m184.95 402.35c16.708-8.6832 34.074-15.214 51.157-22.392 39.855-16.747 79.773-33.346 119.65-50.049 5.6795-2.379 11.112-5.2394 15.976-9.6316 4.6804-1.588 9.0746-3.0091 13.718-3.2686 2.5684-0.14356 5.3972-0.87 7.1842 2.5405-7.0776 12.916-18.093 20.885-31.095 26.332-57.581 24.12-115.19 48.165-172.8 72.232-3.0514 1.2749-6.1015 2.5669-9.7743 3.023-4.8411 0.91803-3.8749-1.7327-2.7535-3.9465 2.5408-5.0159 4.7375-10.259 8.7368-14.84z" fill="#EFB340"/>
<path d="m184.69 402.03c1.8725 2.0986 0.34559 3.6707-0.61154 5.365-2.1917 3.8797-4.3541 7.7759-6.5472 11.655-0.47877 0.84683-0.58098 1.5276 0.79495 1.9783-2.5104 1.6991-5.6873 1.8043-9.0625 2.5682-59.024 7.155-95.887-53.177-73.15-101.24 9.5108-18.719 24.897-30.222 44.462-36.812 2.3437-0.78942 2.5714 0.57059 3.0967 1.859 1.5003 3.6802 2.5696 7.5773 4.4262 11.06 1.8969 3.558 0.28669 4.6312-2.7058 5.4024-11.724 3.0212-20.964 9.6628-28.274 19.224-8.1959 9.6861-9.2937 21.5-9.7769 33.42 1.3452 23.863 18.649 43.614 42.031 48.533 6.7664 1.1959 19.977 2.2787 35.318-3.018z" fill="#f9c854"/>
<path d="m285.31 243.36c28.12-12.646 56.651-24.109 85.405-34.98 25.215-9.5329 51.468-13.227 78.356-11.249 15.566 1.1452 30.924 4.0089 46.493 7.7028 3.9033 6.2396 1.4402 13.807 1.783 20.714 0.14914 0.88049-1.5501 18.014-14.673 11.477-7.8631-3.917-15.203-8.7967-23.236-12.446-9.1369-4.1509-18.782-6.5444-28.556-8.0613-21.417-6.159-86.529 2.6725-134.83 24.824-2.5573 1.1727-5.2439 2.062-7.8137 3.2099-1.3137 0.58686-2.2136 0.4598-2.9253-1.1918z" fill="#f0b240"/>
<path d="m392.96 319.67c-5.0031-2.043-9.6643 0.59278-14.391 0.7645-1.959 0.0712-3.8906 0.87851-6.2021-0.0986 5.3573-5.903 10.087-12.213 11.638-20.357 3.7568-19.731-8.0386-38.601-27.446-44.003-15.122-3.314-31.072 7.3255-17.857-16.34 15.947-5.971 31.566 1.2591 44.255 11.62 10.099 9.2224 15.681 20.701 17.913 34.414 1.0946 3.701 0.47171 7.1098 0.33466 10.896-1.8783 8.2058-3.5665 15.993-8.245 23.105z" fill="#f9c854"/>
<path d="m296.08 302.73c0.31335 0.81369 0.79532 1.3929 0.66 1.7011-0.41748 0.95096-13.25 6.6372-14.204 6.4102-1.1842-0.28165-1.2831-1.331-1.6556-2.2586-10.92-27.202-21.823-54.411-32.875-81.559-1.1358-2.7901-0.19485-3.7406 2.1325-4.733 10.719-4.5711 10.627-4.5759 15.096 6.2197 10.2 24.639 20.483 49.243 30.846 74.22z" fill="#F9C954"/>
<path d="m237.38 329.26c-3.2897 2.1313-4.6838 1.0905-5.938-2.0614-10.402-26.142-20.888-52.251-31.559-78.284-1.5568-3.798-0.56078-5.1807 2.9722-6.4735 10.067-3.6838 10.04-3.8107 13.93 5.8299 9.5385 23.639 19.064 47.283 28.585 70.928 2.3967 5.952 2.3823 5.9615-3.4847 8.294-1.3826 0.54965-2.7769 1.0697-4.5059 1.7664z" fill="#F9C955"/>
<path d="m180.52 301.46c5.4099 13.244 10.512 26.202 15.929 39.027 1.3109 3.1035 0.63571 4.275-2.268 5.4866-10.939 4.5643-10.893 4.6406-15.353-6.4124-9.4883-23.511-18.939-47.037-28.549-70.498-1.2885-3.1455-0.86172-4.4691 2.4373-5.7284 10.858-4.1446 10.789-4.2783 15.045 6.408 4.1697 10.468 8.3765 20.922 12.759 31.717z" fill="#F9C954"/>
<path d="m53.278 355.54c-2.7265 9.1353-8.4373 14.868-16.753 18.284-2.7096 1.1127-4.0975 0.53585-5.205-2.2155-4.3148-10.719-8.6553-21.434-13.316-32.005-1.8516-4.1998-0.8297-6.5312 3.221-8.0527 16.114-7.3208 25.45-3.309 31.595 15.184 1.1166 2.9474 0.51887 5.683 0.45755 8.8056z" fill="#f9c754"/>
<path d="m338.59 239.39c0.31735 5.6866 0.10448 10.298-2.7723 15.597-11.312 4.993-24.167 10.193-35.255 15.035-2.7276 1.1912-3.992 0.96433-5.2529-1.8774-4.7323-10.666-4.8434-10.681 6.1129-15.023 12.171-4.8232 24.13-10.225 37.167-13.732z" fill="#efb441"/>
<path d="m145.16 334.13c-7.6657 3.1674-14.972 6.1974-23.205 9.6118 0.88093-5.2704 3.0574-9.0072 5.6032-12.486 6.3608-8.6909 15.602-13.023 25.423-16.429 1.002-0.3476 1.6577-0.81738 2.2066 0.6521 1.3277 3.5548 2.7985 7.0593 4.3112 10.541 0.98473 2.2662-0.7816 2.4556-2.0932 3.0079-3.9572 1.6665-7.9234 3.3117-12.245 5.1025z" fill="#EFB541"/>
<path d="m187 282.99c-1.7669-4.5256-3.1994-8.7981-5.192-12.791-1.5164-3.0386-0.27152-3.9766 2.2891-5.003 7.3328-2.9392 7.2974-3.0114 10.276 4.2696 1.4433 3.5276 2.7476 7.1254 4.424 10.54 1.2075 2.4594 0.69037 3.5399-1.9079 4.1154-1.4354 0.31793-2.8495 0.94107-4.1393 1.6651-3.0242 1.6975-4.867 0.9454-5.7502-2.7956z" fill="#F8CA55"/>
<path d="m246.78 262.76c-8.71 3.2023-8.7113 3.2028-12.024-5.003-0.67915-1.6822-1.3858-3.355-2.0061-5.059-0.76422-2.0991-3.0919-5.0583-1.9036-6.131 2.1709-1.9597 5.5918-2.5401 8.4991-3.6755 1.0037-0.39198 1.563 0.19498 1.8883 1.0322 2.264 5.8278 4.5236 11.658 6.7117 17.514 0.095246 0.25497-0.5217 0.77597-1.1651 1.3221z" fill="#F7CA55"/>
<path d="m206.73 299.27c0.74571 1.8961 1.167 3.5372 1.9767 4.9568 1.525 2.6738 0.89282 4.0621-2.0933 4.7831-2.6733 0.64551-6.2799 3.8387-7.5582 2.3508-2.5511-2.9694-3.5092-7.3371-4.9873-11.18-0.43188-1.123 0.46663-1.7664 1.5092-2.1501 1.5513-0.57101 3.1629-1.0618 4.5913-1.8663 3.4359-1.9351 5.5137-1.0544 6.5615 3.106z" fill="#F5CA55"/>
<path d="m243.44 278.31c9.2017-4.2143 9.2018-4.2143 12.896 4.6643 2.1411 5.1453-0.17438 8.531-6.0024 9.0178-1.9394 0.16196-2.1067-1.176-2.5941-2.3613-1.51-3.6717-3.0104-7.3475-4.2998-11.321z" fill="#F5CA55"/>
<path d="m78.517 331.06c-0.56804 1.9399-1.4268 3.5252-1.4191 5.1062 0.031768 6.4977-5.4212 6.913-9.4803 8.9303-1.2672 0.62982-1.7764 0.022735-2.1254-1.0511-0.10225-0.31461-0.20031-0.63058-0.298-0.94666-2.0954-6.7797-2.1471-6.9076 4.4869-9.5942 2.8772-1.1652 5.458-3.5106 8.8358-2.4445z" fill="#EFBB44"/>




<path d="m401.23 296.87c-0.25198-3.2494-0.24826-6.5954-0.21588-10.397 1.6516 3.069 1.1849 6.6796 0.21588 10.397z" fill="#2F231C"/>



















</g></svg>
